<?xml version="1.0" standalone="no"?>
<!DOCTYPE svg PUBLIC "-//W3C//DTD SVG 20010904//EN"
 "http://www.w3.org/TR/2001/REC-SVG-20010904/DTD/svg10.dtd">
<svg version="1.0" xmlns="http://www.w3.org/2000/svg"
 width="700.000000pt" height="700.000000pt" viewBox="0 0 700.000000 700.000000"
 preserveAspectRatio="xMidYMid meet">
<metadata>
Created by potrace 1.14, written by Peter Selinger 2001-2017
</metadata>
<g transform="translate(0.000000,700.000000) scale(0.100000,-0.100000)"
fill="#000000" stroke="none">
<path d="M0 3500 l0 -3500 3500 0 3500 0 0 3500 0 3500 -3500 0 -3500 0 0
-3500z m4811 2605 c0 -26 0 -3365 0 -3430 l-1 -50 -217 0 -218 0 -1 1520 c-1
836 -2 1525 -3 1531 -1 9 -346 12 -1311 11 l-1310 0 0 -2188 0 -2187 875 0
875 0 0 1531 0 1532 219 0 218 0 1 -1735 c0 -954 -1 -1742 -4 -1750 -3 -13
-157 -15 -1313 -15 l-1308 0 -1 2620 c0 1441 2 2622 3 2625 2 3 789 5 1749 5
1740 0 1746 0 1747 -20z m-1750 -1745 c1 -19 1 -1700 0 -1720 -1 -13 -32 -15
-219 -15 l-217 0 0 872 c0 769 2 873 15 875 8 2 106 3 217 3 173 0 203 -2 204
-15z m2626 -850 c1 -475 -2 -869 -7 -875 -5 -7 -81 -10 -212 -9 -112 1 -206 2
-210 3 -8 1 -11 1734 -4 1742 3 2 100 4 218 4 l213 0 2 -865z"/>
</g>
</svg>
